# xmcd
#
# Track frame offsets:
#	150
#	11770
#	23920
#	40595
#	54978
#	68609
#	83118
#	94577
#	110789
#	125192
#	143947
#	160559
#	175450
#	194524
#	210158
#
# Disc length: 3017 seconds
#
# Revision: 0
# Processed by: cddbd v1.5.2PL0 Copyright (c) Steve Scherf et al.
# Submitted via: EZCDAudioConverter 1.3.4.1
#
DISCID=c70bc70f
DTITLE=Halina Kułdo and Savannah Country - Savannah Country
DYEAR=2003
DGENRE=Country
TTITLE0=That's What I Like About You (Trisha Yearwood)
TTITLE1=Your Cheatin' Heart (Hank Williams)
TTITLE2=Harley'Da (sł. muz. B. Przedwolski)
TTITLE3=Lonely At The Right Time (Tania Tucker)
TTITLE4=Zabawki chcesz (muz. H.Kułdo, sł. M. Kułdo)
TTITLE5=Mary Lou (Ricky Nelson)
TTITLE6=Diable graj Trisha Yearwood, sł. H. Kułdo)
TTITLE7=Here's Some Love (Tanya Tucker)
TTITLE8=Big Boned Gal (K. D. Lang)
TTITLE9=You Win My Love (Shania Twain)
TTITLE10=Gdy Country gram (sł. H. Kułdo, muz. M. Kułdo)
TTITLE11=You Done Me Wrong (Trisha Yearwood)
TTITLE12=Piece Of My Heart (Janis Joplin/Faith Hill)
TTITLE13=Kochany dla ciebie spiewam (sl. muz. H. Kułdo)
TTITLE14=Track15
EXTD=
EXTT0=
EXTT1=
EXTT2=
EXTT3=
EXTT4=
EXTT5=
EXTT6=
EXTT7=
EXTT8=
EXTT9=
EXTT10=
EXTT11=
EXTT12=
EXTT13=
EXTT14=
PLAYORDER=
